# xmcd CD database file
#
# Track frame offsets:
#	182
#	4860
#	27530
#	53757
#	79332
#	102880
#	126375
#	127952
#	145107
#	146015
#	162992
#	179807
#	204632
#	206670
#	230775
#	253510
#
# Disc length: 3650 seconds
#
# Revision: 4
# Processed by: cddbd v1.5.2PL0 Copyright (c) Steve Scherf et al.
# Submitted via: CDex 1.70beta2
#
DISCID=f10e4010
DTITLE=Ex-Girlfriend - X Marks The Spot
DYEAR=1991
DGENRE=R and B
TTITLE0=Exterlude~Intro{TheLesson}
TTITLE1=You {You'reTheOneForMe}
TTITLE2=Why Can't You Come Home
TTITLE3=Cold-Blooded
TTITLE4=With All My Heart
TTITLE5=SOS
TTITLE6=Exterlude
TTITLE7=FellasInTheArea
TTITLE8=Exterlude{BoyGoneCuckoo}
TTITLE9=Don't Knock On My Door
TTITLE10=I Found That Guy
TTITLE11=For All The Right Reasons
TTITLE12=Exterlude~TheMan{AccordingToEx-Girlfriend}
TTITLE13=I Love My Man
TTITLE14=What I Will Do To You
TTITLE15=Searching To Find The One
EXTD=more info YEAR: 1991
EXTT0=
EXTT1=
EXTT2=
EXTT3=
EXTT4=
EXTT5=
EXTT6=
EXTT7=
EXTT8=
EXTT9=
EXTT10=
EXTT11=
EXTT12=
EXTT13=
EXTT14=
EXTT15=
PLAYORDER=
